<svg xmlns="http://www.w3.org/2000/svg" xmlns:xlink="http://www.w3.org/1999/xlink" width="500" zoomAndPan="magnify" viewBox="0 0 375 374.999991" height="500" preserveAspectRatio="xMidYMid meet" version="1.0"><defs><clipPath id="c095bb38a5"><path d="M 0 17.046875 L 375 17.046875 L 375 358.296875 L 0 358.296875 Z M 0 17.046875 " clip-rule="nonzero"/></clipPath></defs><g clip-path="url(#c095bb38a5)"><path fill="#000000" d="M 180.457031 65.84375 L 26.898438 219.558594 C 24.65625 221.804688 21 221.804688 18.757812 219.558594 C 17.636719 218.4375 17.050781 216.972656 17.050781 215.460938 L 17.050781 22.804688 C 17.050781 19.632812 19.632812 17.046875 22.804688 17.046875 L 368.285156 17.046875 C 371.453125 17.046875 374.035156 19.632812 374.035156 22.804688 C 374.035156 24.511719 373.304688 26.074219 372.085938 27.148438 L 353.125 46.617188 L 180.40625 219.511719 L 180.113281 219.804688 L 175.726562 224.148438 L 75.597656 324.378906 L 180.652344 324.378906 L 195.03125 309.984375 L 195.324219 309.691406 L 269.714844 234.6875 L 348.054688 156.269531 C 350.296875 154.023438 353.953125 154.023438 356.195312 156.269531 C 357.316406 157.390625 357.902344 158.855469 357.902344 160.367188 L 357.902344 352.488281 C 357.902344 355.660156 355.316406 358.246094 352.148438 358.246094 L 6.667969 358.246094 C 3.5 358.246094 0.914062 355.660156 0.914062 352.488281 C 0.914062 350.730469 1.695312 349.121094 2.960938 348.046875 L 22.316406 329.210938 L 299.839844 51.398438 L 194.789062 51.398438 L 180.40625 65.796875 Z M 180.457031 65.84375 " fill-opacity="1" fill-rule="nonzero"/></g></svg>