<svg xmlns="http://www.w3.org/2000/svg" xmlns:xlink="http://www.w3.org/1999/xlink" width="500" zoomAndPan="magnify" viewBox="0 0 375 374.999991" height="500" preserveAspectRatio="xMidYMid meet" version="1.0"><defs><g/><clipPath id="a67d165001"><path d="M 68.191406 200.523438 L 92.316406 200.523438 L 92.316406 222.792969 L 68.191406 222.792969 Z M 68.191406 200.523438 " clip-rule="nonzero"/></clipPath><clipPath id="877cf2c382"><path d="M 170 18.679688 L 246 18.679688 L 246 110 L 170 110 Z M 170 18.679688 " clip-rule="nonzero"/></clipPath><clipPath id="b00050269e"><path d="M 105 260 L 230 260 L 230 356.179688 L 105 356.179688 Z M 105 260 " clip-rule="nonzero"/></clipPath><clipPath id="071ba332fe"><path d="M 98.179688 81 L 235 81 L 235 183 L 98.179688 183 Z M 98.179688 81 " clip-rule="nonzero"/></clipPath><clipPath id="4a7aa81110"><path d="M 145 133 L 276.679688 133 L 276.679688 262 L 145 262 Z M 145 133 " clip-rule="nonzero"/></clipPath></defs><g clip-path="url(#a67d165001)"><path fill="#ffffff" d="M 79.863281 203.675781 L 69.929688 213.609375 C 69.785156 213.753906 69.550781 213.753906 69.402344 213.609375 C 69.332031 213.535156 69.292969 213.441406 69.292969 213.34375 L 69.292969 200.894531 C 69.292969 200.691406 69.460938 200.523438 69.664062 200.523438 L 92.011719 200.523438 C 92.21875 200.523438 92.386719 200.691406 92.386719 200.894531 C 92.386719 201.003906 92.339844 201.105469 92.257812 201.175781 L 91.03125 202.433594 L 73.082031 220.382812 L 79.875 220.382812 L 80.808594 219.453125 L 80.824219 219.433594 L 85.636719 214.585938 L 90.703125 209.519531 C 90.851562 209.375 91.085938 209.375 91.230469 209.519531 C 91.304688 209.59375 91.34375 209.6875 91.34375 209.785156 L 91.34375 222.199219 C 91.34375 222.402344 91.175781 222.570312 90.96875 222.570312 L 68.621094 222.570312 C 68.417969 222.570312 68.25 222.402344 68.25 222.199219 C 68.25 222.085938 68.300781 221.980469 68.382812 221.910156 L 69.632812 220.695312 L 87.585938 202.742188 L 80.789062 202.742188 L 79.859375 203.671875 Z M 79.863281 203.675781 " fill-opacity="1" fill-rule="nonzero"/></g><g fill="#ffffff" fill-opacity="1"><g transform="translate(92.661293, 222.634097)"><g><path d="M 4.578125 0 L 1.296875 0 L 1.296875 -12.9375 L 4.578125 -12.9375 Z M 4.578125 0 "/></g></g></g><g fill="#ffffff" fill-opacity="1"><g transform="translate(98.534003, 222.634097)"><g><path d="M 1.296875 -12.9375 L 6.859375 -12.9375 C 8.890625 -12.9375 10.539062 -12.335938 11.8125 -11.140625 C 13.09375 -9.953125 13.734375 -8.394531 13.734375 -6.46875 C 13.734375 -4.5625 13.085938 -3.003906 11.796875 -1.796875 C 10.503906 -0.597656 8.816406 0 6.734375 0 L 1.296875 0 Z M 4.578125 -10.3125 L 4.578125 -2.625 L 6.9375 -2.625 C 7.945312 -2.625 8.773438 -2.976562 9.421875 -3.6875 C 10.066406 -4.394531 10.390625 -5.316406 10.390625 -6.453125 C 10.390625 -7.585938 10.050781 -8.515625 9.375 -9.234375 C 8.695312 -9.953125 7.832031 -10.3125 6.78125 -10.3125 Z M 4.578125 -10.3125 "/></g></g></g><g fill="#ffffff" fill-opacity="1"><g transform="translate(112.698695, 222.634097)"><g><path d="M 11.421875 -10.34375 L 4.578125 -10.34375 L 4.578125 -7.78125 L 10.765625 -7.78125 L 10.765625 -5.1875 L 4.578125 -5.1875 L 4.578125 -2.59375 L 11.625 -2.59375 L 11.625 0 L 1.296875 0 L 1.296875 -12.9375 L 11.421875 -12.9375 Z M 11.421875 -10.34375 "/></g></g></g><g fill="#ffffff" fill-opacity="1"><g transform="translate(125.145883, 222.634097)"><g><path d="M 9.71875 0 L 6.296875 -5.078125 L 4.578125 -3.171875 L 4.578125 0 L 1.296875 0 L 1.296875 -12.9375 L 4.578125 -12.9375 L 4.578125 -7.34375 L 9.53125 -12.9375 L 13.34375 -12.9375 L 8.546875 -7.578125 L 13.65625 0 Z M 9.71875 0 "/></g></g></g><g fill="#ffffff" fill-opacity="1"><g transform="translate(78.752421, 233.971712)"><g><path d="M 4.359375 -5.59375 L 4.359375 -5.03125 L 2.609375 -5.03125 L 2.609375 0 L 1.953125 0 L 1.953125 -5.03125 L 0.203125 -5.03125 L 0.203125 -5.59375 Z M 4.359375 -5.59375 "/></g></g></g><g fill="#ffffff" fill-opacity="1"><g transform="translate(83.316807, 233.971712)"><g><path d="M 1.5 -2.640625 L 1.5 -0.546875 L 4.34375 -0.546875 L 4.34375 0 L 0.84375 0 L 0.84375 -5.59375 L 4.28125 -5.59375 L 4.28125 -5.046875 L 1.5 -5.046875 L 1.5 -3.171875 L 3.953125 -3.171875 L 3.953125 -2.640625 Z M 1.5 -2.640625 "/></g></g></g><g fill="#ffffff" fill-opacity="1"><g transform="translate(88.037927, 233.971712)"><g><path d="M 3.09375 0.078125 C 2.601562 0.078125 2.164062 -0.03125 1.78125 -0.25 C 1.394531 -0.476562 1.09375 -0.804688 0.875 -1.234375 C 0.664062 -1.671875 0.5625 -2.191406 0.5625 -2.796875 C 0.5625 -3.398438 0.664062 -3.914062 0.875 -4.34375 C 1.09375 -4.78125 1.394531 -5.109375 1.78125 -5.328125 C 2.164062 -5.554688 2.601562 -5.671875 3.09375 -5.671875 C 3.613281 -5.671875 4.046875 -5.570312 4.390625 -5.375 C 4.734375 -5.175781 4.984375 -4.878906 5.140625 -4.484375 L 4.71875 -4.203125 L 4.625 -4.203125 C 4.46875 -4.515625 4.265625 -4.738281 4.015625 -4.875 C 3.773438 -5.007812 3.46875 -5.078125 3.09375 -5.078125 C 2.738281 -5.078125 2.425781 -5 2.15625 -4.84375 C 1.882812 -4.6875 1.664062 -4.4375 1.5 -4.09375 C 1.34375 -3.757812 1.265625 -3.328125 1.265625 -2.796875 C 1.265625 -2.265625 1.34375 -1.828125 1.5 -1.484375 C 1.664062 -1.148438 1.882812 -0.90625 2.15625 -0.75 C 2.425781 -0.59375 2.738281 -0.515625 3.09375 -0.515625 C 3.5 -0.515625 3.828125 -0.601562 4.078125 -0.78125 C 4.335938 -0.96875 4.53125 -1.265625 4.65625 -1.671875 L 4.75 -1.671875 L 5.1875 -1.453125 C 5.050781 -0.960938 4.804688 -0.582031 4.453125 -0.3125 C 4.097656 -0.0507812 3.644531 0.078125 3.09375 0.078125 Z M 3.09375 0.078125 "/></g></g></g><g fill="#ffffff" fill-opacity="1"><g transform="translate(93.519777, 233.971712)"><g><path d="M 4.40625 -3.328125 L 4.40625 -5.59375 L 5.0625 -5.59375 L 5.0625 0 L 4.40625 0 L 4.40625 -2.765625 L 1.5 -2.765625 L 1.5 0 L 0.84375 0 L 0.84375 -5.59375 L 1.5 -5.59375 L 1.5 -3.328125 Z M 4.40625 -3.328125 "/></g></g></g><g fill="#ffffff" fill-opacity="1"><g transform="translate(99.429778, 233.971712)"><g><path d="M 1.484375 0 L 0.84375 0 L 0.84375 -5.59375 L 1.65625 -5.59375 L 4.375 -1.3125 L 4.46875 -1.328125 L 4.46875 -5.59375 L 5.109375 -5.59375 L 5.109375 0 L 4.421875 0 L 1.578125 -4.5625 L 1.484375 -4.546875 Z M 1.484375 0 "/></g></g></g><g fill="#ffffff" fill-opacity="1"><g transform="translate(105.389474, 233.971712)"><g><path d="M 3.0625 0.078125 C 2.582031 0.078125 2.148438 -0.0234375 1.765625 -0.234375 C 1.390625 -0.441406 1.09375 -0.757812 0.875 -1.1875 C 0.664062 -1.613281 0.5625 -2.148438 0.5625 -2.796875 C 0.5625 -3.429688 0.664062 -3.960938 0.875 -4.390625 C 1.09375 -4.828125 1.390625 -5.148438 1.765625 -5.359375 C 2.148438 -5.566406 2.582031 -5.671875 3.0625 -5.671875 C 3.550781 -5.671875 3.984375 -5.566406 4.359375 -5.359375 C 4.734375 -5.148438 5.03125 -4.828125 5.25 -4.390625 C 5.46875 -3.960938 5.578125 -3.429688 5.578125 -2.796875 C 5.578125 -2.148438 5.46875 -1.613281 5.25 -1.1875 C 5.03125 -0.757812 4.734375 -0.441406 4.359375 -0.234375 C 3.984375 -0.0234375 3.550781 0.078125 3.0625 0.078125 Z M 3.0625 -0.53125 C 3.644531 -0.53125 4.09375 -0.707031 4.40625 -1.0625 C 4.71875 -1.425781 4.875 -2.003906 4.875 -2.796875 C 4.875 -3.578125 4.71875 -4.148438 4.40625 -4.515625 C 4.09375 -4.878906 3.644531 -5.0625 3.0625 -5.0625 C 1.863281 -5.0625 1.265625 -4.304688 1.265625 -2.796875 C 1.265625 -1.285156 1.863281 -0.53125 3.0625 -0.53125 Z M 3.0625 -0.53125 "/></g></g></g><g fill="#ffffff" fill-opacity="1"><g transform="translate(111.521195, 233.971712)"><g><path d="M 1.5 -5.59375 L 1.5 -0.546875 L 4.1875 -0.546875 L 4.1875 0 L 0.84375 0 L 0.84375 -5.59375 Z M 1.5 -5.59375 "/></g></g></g><g fill="#ffffff" fill-opacity="1"><g transform="translate(115.951784, 233.971712)"><g><path d="M 3.0625 0.078125 C 2.582031 0.078125 2.148438 -0.0234375 1.765625 -0.234375 C 1.390625 -0.441406 1.09375 -0.757812 0.875 -1.1875 C 0.664062 -1.613281 0.5625 -2.148438 0.5625 -2.796875 C 0.5625 -3.429688 0.664062 -3.960938 0.875 -4.390625 C 1.09375 -4.828125 1.390625 -5.148438 1.765625 -5.359375 C 2.148438 -5.566406 2.582031 -5.671875 3.0625 -5.671875 C 3.550781 -5.671875 3.984375 -5.566406 4.359375 -5.359375 C 4.734375 -5.148438 5.03125 -4.828125 5.25 -4.390625 C 5.46875 -3.960938 5.578125 -3.429688 5.578125 -2.796875 C 5.578125 -2.148438 5.46875 -1.613281 5.25 -1.1875 C 5.03125 -0.757812 4.734375 -0.441406 4.359375 -0.234375 C 3.984375 -0.0234375 3.550781 0.078125 3.0625 0.078125 Z M 3.0625 -0.53125 C 3.644531 -0.53125 4.09375 -0.707031 4.40625 -1.0625 C 4.71875 -1.425781 4.875 -2.003906 4.875 -2.796875 C 4.875 -3.578125 4.71875 -4.148438 4.40625 -4.515625 C 4.09375 -4.878906 3.644531 -5.0625 3.0625 -5.0625 C 1.863281 -5.0625 1.265625 -4.304688 1.265625 -2.796875 C 1.265625 -1.285156 1.863281 -0.53125 3.0625 -0.53125 Z M 3.0625 -0.53125 "/></g></g></g><g fill="#ffffff" fill-opacity="1"><g transform="translate(122.083505, 233.971712)"><g><path d="M 2.9375 0.078125 C 2.46875 0.078125 2.050781 -0.0234375 1.6875 -0.234375 C 1.332031 -0.453125 1.054688 -0.773438 0.859375 -1.203125 C 0.660156 -1.640625 0.5625 -2.171875 0.5625 -2.796875 C 0.5625 -3.421875 0.664062 -3.945312 0.875 -4.375 C 1.09375 -4.8125 1.390625 -5.132812 1.765625 -5.34375 C 2.148438 -5.5625 2.59375 -5.671875 3.09375 -5.671875 C 3.632812 -5.671875 4.078125 -5.570312 4.421875 -5.375 C 4.765625 -5.1875 5.007812 -4.898438 5.15625 -4.515625 L 4.71875 -4.265625 L 4.625 -4.265625 C 4.476562 -4.554688 4.28125 -4.765625 4.03125 -4.890625 C 3.789062 -5.015625 3.476562 -5.078125 3.09375 -5.078125 C 1.875 -5.078125 1.265625 -4.316406 1.265625 -2.796875 C 1.265625 -2.003906 1.414062 -1.425781 1.71875 -1.0625 C 2.03125 -0.695312 2.460938 -0.515625 3.015625 -0.515625 C 3.523438 -0.515625 3.90625 -0.628906 4.15625 -0.859375 C 4.414062 -1.085938 4.546875 -1.453125 4.546875 -1.953125 L 4.546875 -2.453125 L 2.953125 -2.453125 L 2.953125 -2.984375 L 5.1875 -2.984375 L 5.1875 0 L 4.578125 0 L 4.578125 -0.75 L 4.5 -0.765625 C 4.34375 -0.484375 4.132812 -0.269531 3.875 -0.125 C 3.613281 0.0078125 3.300781 0.078125 2.9375 0.078125 Z M 2.9375 0.078125 "/></g></g></g><g fill="#ffffff" fill-opacity="1"><g transform="translate(127.894114, 233.971712)"><g><path d="M 2.734375 0 L 2.078125 0 L 2.078125 -2.1875 L 0.140625 -5.59375 L 0.859375 -5.59375 L 2.375 -2.96875 L 2.46875 -2.96875 L 3.953125 -5.59375 L 4.65625 -5.59375 L 2.734375 -2.1875 Z M 2.734375 0 "/></g></g></g><g clip-path="url(#877cf2c382)"><path fill="#808285" d="M 245.285156 63.78125 C 245.28125 63.753906 245.273438 63.726562 245.265625 63.703125 C 245.265625 63.703125 245.265625 63.703125 245.265625 63.699219 C 245.257812 63.683594 245.25 63.667969 245.242188 63.65625 L 229.976562 36.472656 C 229.960938 36.445312 229.941406 36.421875 229.921875 36.398438 C 229.882812 36.355469 229.835938 36.324219 229.78125 36.300781 C 229.773438 36.300781 229.769531 36.296875 229.761719 36.296875 L 181.539062 18.707031 C 181.496094 18.691406 181.445312 18.683594 181.394531 18.683594 C 181.371094 18.679688 181.347656 18.683594 181.328125 18.6875 C 181.253906 18.699219 181.191406 18.734375 181.136719 18.777344 C 181.109375 18.800781 181.089844 18.824219 181.066406 18.855469 C 181.023438 18.917969 180.996094 18.996094 180.996094 19.078125 C 180.996094 19.09375 181 19.105469 181 19.117188 C 181 19.117188 181 19.117188 181 19.121094 C 181 19.121094 181 19.125 181 19.128906 L 183.5625 39.6875 L 171.5625 56.074219 C 171.53125 56.117188 171.507812 56.167969 171.496094 56.222656 C 171.492188 56.234375 171.488281 56.25 171.488281 56.261719 C 171.488281 56.265625 171.488281 56.265625 171.488281 56.265625 C 171.484375 56.277344 171.484375 56.285156 171.484375 56.296875 L 170.574219 82.066406 C 170.574219 82.09375 170.574219 82.125 170.582031 82.15625 C 170.582031 82.160156 170.582031 82.160156 170.582031 82.160156 C 170.582031 82.164062 170.582031 82.164062 170.582031 82.167969 C 170.582031 82.171875 170.582031 82.171875 170.582031 82.171875 C 170.582031 82.171875 170.582031 82.171875 170.582031 82.175781 C 170.601562 82.25 170.636719 82.3125 170.683594 82.359375 L 197.046875 109.765625 C 197.125 109.847656 197.230469 109.886719 197.332031 109.886719 C 197.339844 109.886719 197.347656 109.886719 197.355469 109.886719 L 240.632812 108 C 240.632812 108 240.636719 108 240.636719 108 C 240.640625 108 240.640625 108 240.640625 108 C 240.730469 107.992188 240.804688 107.960938 240.867188 107.910156 C 240.894531 107.886719 240.917969 107.863281 240.9375 107.835938 C 240.980469 107.78125 241.003906 107.710938 241.011719 107.636719 C 241.011719 107.625 241.015625 107.609375 241.015625 107.597656 L 240.964844 75.21875 L 245.261719 64 C 245.265625 63.988281 245.269531 63.976562 245.273438 63.964844 C 245.273438 63.964844 245.273438 63.964844 245.277344 63.960938 C 245.296875 63.902344 245.296875 63.839844 245.285156 63.78125 C 245.289062 63.78125 245.285156 63.78125 245.285156 63.78125 Z M 192.789062 71.542969 L 205.804688 44.765625 L 212.617188 58.664062 Z M 212.605469 59.621094 L 210.609375 72.921875 L 193.078125 72.304688 Z M 208.007812 82.175781 L 172.765625 81.710938 L 191.785156 73.101562 Z M 193.433594 73.113281 L 210.488281 73.714844 L 209.25 81.964844 Z M 211.289062 73.742188 L 231.722656 74.460938 L 210.050781 82 Z M 211.410156 72.949219 L 213.425781 59.519531 L 232.589844 73.699219 Z M 213.203125 58.042969 L 206.367188 44.101562 L 228.585938 37.398438 Z M 228.367188 36.632812 L 205.917969 43.40625 L 182.917969 20.058594 Z M 181.9375 20.195312 L 204.628906 43.234375 L 184.335938 39.457031 Z M 184.152344 40.234375 L 204.304688 43.980469 L 172.984375 55.484375 Z M 205.011719 44.570312 L 191.664062 72.027344 L 172.671875 56.445312 Z M 172.25 57.128906 L 191.054688 72.558594 L 171.394531 81.457031 Z M 197.214844 108.792969 L 171.921875 82.496094 L 208.945312 82.984375 Z M 197.96875 109.066406 L 209.710938 83.226562 L 239.546875 107.25 Z M 210.363281 82.734375 L 233.558594 74.667969 L 240.011719 106.601562 Z M 234.359375 74.617188 L 240.171875 75.488281 L 240.214844 103.589844 Z M 240.3125 74.707031 L 234.730469 73.871094 L 243.90625 65.320312 Z M 233.828125 73.625 L 214.679688 59.453125 L 244.027344 64.121094 Z M 213.84375 58.515625 L 229.582031 37.398438 L 244.144531 63.332031 Z M 213.84375 58.515625 " fill-opacity="1" fill-rule="nonzero"/></g><g clip-path="url(#b00050269e)"><path fill="#ffffff" d="M 229.664062 311.824219 C 229.65625 311.796875 229.648438 311.769531 229.632812 311.742188 C 229.613281 311.703125 229.585938 311.664062 229.554688 311.636719 L 182.570312 264.699219 C 182.566406 264.695312 182.558594 264.691406 182.554688 264.6875 C 182.554688 264.6875 182.554688 264.683594 182.550781 264.683594 C 182.488281 264.625 182.410156 264.59375 182.328125 264.585938 L 146.277344 260.679688 C 146.25 260.675781 146.226562 260.671875 146.199219 260.675781 C 146.164062 260.679688 146.132812 260.6875 146.101562 260.695312 C 146.101562 260.695312 146.097656 260.695312 146.097656 260.695312 C 146.042969 260.714844 145.988281 260.75 145.945312 260.796875 C 145.933594 260.808594 145.925781 260.816406 145.914062 260.828125 L 137.574219 271.492188 L 105.824219 287.835938 C 105.8125 287.84375 105.804688 287.847656 105.792969 287.855469 C 105.726562 287.894531 105.675781 287.953125 105.644531 288.019531 C 105.632812 288.046875 105.621094 288.074219 105.617188 288.101562 C 105.617188 288.101562 105.617188 288.101562 105.617188 288.105469 C 105.597656 288.183594 105.601562 288.269531 105.636719 288.347656 C 105.636719 288.347656 105.636719 288.347656 105.636719 288.351562 C 105.640625 288.355469 105.640625 288.363281 105.644531 288.371094 L 130.5 339.445312 C 130.5 339.449219 130.5 339.449219 130.5 339.453125 C 130.507812 339.460938 130.503906 339.453125 130.503906 339.453125 C 130.542969 339.53125 130.609375 339.597656 130.695312 339.636719 C 130.703125 339.640625 130.710938 339.644531 130.71875 339.644531 L 173.832031 356.289062 C 173.839844 356.289062 173.84375 356.292969 173.851562 356.292969 C 173.851562 356.292969 173.851562 356.292969 173.855469 356.292969 C 173.855469 356.296875 173.855469 356.296875 173.859375 356.296875 C 173.894531 356.308594 173.9375 356.3125 173.976562 356.3125 C 174.019531 356.3125 174.058594 356.308594 174.101562 356.292969 C 174.128906 356.285156 174.15625 356.273438 174.179688 356.257812 L 198.863281 342.152344 C 198.871094 342.148438 198.878906 342.140625 198.886719 342.136719 C 198.890625 342.136719 198.890625 342.136719 198.890625 342.136719 C 198.890625 342.136719 198.890625 342.136719 198.890625 342.132812 C 198.902344 342.125 198.910156 342.117188 198.921875 342.113281 C 198.921875 342.113281 198.921875 342.113281 198.921875 342.109375 C 198.925781 342.109375 198.925781 342.109375 198.925781 342.109375 C 198.960938 342.078125 198.988281 342.042969 199.011719 342.003906 C 199.011719 342.003906 199.011719 342.003906 199.011719 342 C 199.023438 341.984375 199.03125 341.964844 199.039062 341.949219 L 207.6875 319.746094 L 229.40625 312.300781 C 229.410156 312.300781 229.414062 312.296875 229.417969 312.296875 C 229.507812 312.261719 229.578125 312.199219 229.621094 312.125 C 229.640625 312.089844 229.652344 312.054688 229.664062 312.019531 C 229.671875 311.988281 229.675781 311.957031 229.675781 311.925781 C 229.675781 311.890625 229.671875 311.855469 229.664062 311.824219 Z M 227.625 310.832031 L 190.285156 295.917969 L 183.011719 266.269531 Z M 189.433594 295.789062 L 171.34375 294.925781 L 182.207031 266.320312 Z M 189.242188 296.578125 L 170.777344 325.617188 L 171.167969 295.71875 Z M 181.730469 265.324219 L 170.667969 294.464844 L 147.074219 261.566406 Z M 157.371094 305.082031 L 149.933594 310.785156 L 143.859375 281.441406 Z M 144.042969 280.160156 L 170.0625 295.34375 L 158.007812 304.59375 Z M 157.769531 305.78125 L 169.0625 325.542969 L 150.328125 311.488281 Z M 158.40625 305.292969 L 170.367188 296.113281 L 169.984375 325.550781 Z M 146.453125 262.070312 L 169.363281 294.015625 L 143.402344 278.867188 Z M 145.550781 262.589844 L 142.738281 278.0625 L 138.332031 271.820312 Z M 137.710938 272.320312 L 142.300781 278.824219 L 109.207031 286.992188 Z M 142.65625 279.554688 L 149.109375 310.738281 L 107.109375 288.332031 Z M 106.898438 289.121094 L 149.097656 311.628906 L 130.914062 338.476562 Z M 131.46875 339.082031 L 149.636719 312.253906 L 173.105469 355.152344 Z M 150.90625 312.910156 L 169.988281 327.234375 L 173.324219 353.886719 Z M 174.296875 355.273438 L 170.851562 327.71875 L 197.839844 341.820312 Z M 170.929688 326.863281 L 189.742188 297.273438 L 198.121094 341.070312 Z M 198.800781 340.371094 L 190.660156 297.828125 L 206.933594 319.488281 Z M 207.53125 318.957031 L 191.117188 297.109375 L 228.132812 311.894531 Z M 207.53125 318.957031 " fill-opacity="1" fill-rule="nonzero"/></g><g clip-path="url(#071ba332fe)"><path fill="#1bd2fd" d="M 234.046875 105.839844 C 234.035156 105.773438 234.007812 105.707031 233.960938 105.652344 C 233.949219 105.636719 233.933594 105.621094 233.917969 105.605469 C 233.878906 105.570312 233.835938 105.546875 233.789062 105.53125 L 170.835938 81.546875 C 170.828125 81.542969 170.816406 81.539062 170.808594 81.539062 C 170.804688 81.539062 170.804688 81.535156 170.804688 81.535156 C 170.746094 81.519531 170.683594 81.515625 170.621094 81.527344 C 170.621094 81.527344 170.621094 81.527344 170.617188 81.527344 C 170.617188 81.527344 170.613281 81.527344 170.613281 81.527344 C 170.613281 81.527344 170.613281 81.527344 170.609375 81.527344 C 170.609375 81.527344 170.609375 81.527344 170.605469 81.527344 C 170.605469 81.527344 170.601562 81.53125 170.597656 81.53125 C 170.59375 81.53125 170.59375 81.53125 170.59375 81.53125 C 170.59375 81.53125 170.589844 81.53125 170.589844 81.53125 C 170.585938 81.53125 170.585938 81.53125 170.585938 81.53125 C 170.578125 81.535156 170.570312 81.539062 170.5625 81.539062 L 132.058594 95.398438 C 132.042969 95.40625 132.023438 95.414062 132.003906 95.421875 C 131.984375 95.433594 131.964844 95.445312 131.949219 95.457031 C 131.949219 95.457031 131.945312 95.460938 131.945312 95.460938 C 131.898438 95.496094 131.859375 95.542969 131.832031 95.601562 C 131.828125 95.613281 131.820312 95.628906 131.816406 95.640625 L 126.433594 110.488281 L 98.554688 142.585938 C 98.542969 142.597656 98.535156 142.609375 98.527344 142.621094 C 98.484375 142.683594 98.460938 142.75 98.457031 142.820312 C 98.457031 142.820312 98.457031 142.820312 98.457031 142.824219 C 98.453125 142.851562 98.457031 142.882812 98.460938 142.914062 C 98.472656 142.992188 98.507812 143.0625 98.5625 143.125 C 98.570312 143.128906 98.574219 143.132812 98.578125 143.136719 L 139.894531 182.191406 C 139.96875 182.261719 140.066406 182.304688 140.171875 182.304688 C 140.179688 182.304688 140.1875 182.304688 140.195312 182.300781 C 140.195312 182.300781 140.199219 182.300781 140.199219 182.300781 C 140.203125 182.300781 140.203125 182.300781 140.207031 182.300781 L 189.902344 177.757812 C 189.976562 177.753906 190.050781 177.726562 190.109375 177.679688 C 190.113281 177.679688 190.113281 177.675781 190.113281 177.675781 C 190.113281 177.675781 190.113281 177.675781 190.117188 177.675781 C 190.140625 177.65625 190.164062 177.632812 190.183594 177.605469 L 211.417969 151.261719 C 211.433594 151.238281 211.449219 151.214844 211.460938 151.191406 C 211.460938 151.191406 211.460938 151.1875 211.460938 151.1875 C 211.460938 151.1875 211.460938 151.1875 211.464844 151.1875 C 211.488281 151.140625 211.5 151.089844 211.503906 151.039062 L 213.675781 124.421875 L 233.917969 106.195312 C 233.992188 106.128906 234.035156 106.046875 234.046875 105.957031 C 234.046875 105.957031 234.046875 105.953125 234.046875 105.953125 C 234.054688 105.917969 234.050781 105.878906 234.046875 105.839844 Z M 231.859375 105.644531 L 188.363281 109.101562 L 171.667969 82.714844 Z M 171 83.152344 L 187.570312 109.335938 L 168.488281 117.429688 Z M 157.628906 133.75 L 135.550781 115.957031 L 167.351562 118.398438 Z M 167.90625 119.011719 L 176.570312 149.015625 L 158.253906 134.253906 Z M 157.199219 134.425781 L 151.167969 143.949219 L 135.710938 117.109375 Z M 157.824219 134.929688 L 175.773438 149.394531 L 151.792969 144.453125 Z M 177.023438 150.464844 L 188.757812 175.90625 L 152.605469 145.425781 Z M 168.523438 118.28125 L 187.558594 110.203125 L 177.289062 148.628906 Z M 170.25 82.5 L 167.695312 117.367188 L 133.101562 95.871094 Z M 166.449219 117.53125 L 134.664062 115.089844 L 132.671875 96.542969 Z M 131.976562 97.527344 L 133.820312 114.683594 L 127.265625 110.53125 Z M 126.859375 111.214844 L 133.613281 115.496094 L 101.78125 140.082031 Z M 134.1875 116.054688 L 150.449219 144.296875 L 99.96875 142.492188 Z M 139.972656 181.171875 L 99.890625 143.289062 L 150.625 145.09375 Z M 140.71875 181.457031 L 151.359375 145.417969 L 188.882812 177.054688 Z M 189.960938 176.613281 L 177.933594 150.53125 L 210.292969 151.390625 Z M 177.816406 149.730469 L 188.285156 110.574219 L 210.421875 150.597656 Z M 210.816406 149.667969 L 189.207031 110.59375 L 212.875 124.453125 Z M 213.242188 123.746094 L 189.449219 109.8125 L 232.515625 106.394531 Z M 213.242188 123.746094 " fill-opacity="1" fill-rule="nonzero"/></g><g clip-path="url(#4a7aa81110)"><path fill="#a6a6a6" d="M 276.496094 160.410156 C 276.464844 160.351562 276.421875 160.296875 276.363281 160.257812 C 276.351562 160.25 276.335938 160.242188 276.324219 160.234375 L 226.082031 133.421875 C 226.0625 133.410156 226.042969 133.398438 226.019531 133.390625 C 226.007812 133.386719 225.996094 133.382812 225.984375 133.382812 C 225.898438 133.359375 225.804688 133.367188 225.71875 133.410156 C 225.710938 133.414062 225.707031 133.414062 225.703125 133.417969 L 175.902344 160.179688 C 175.859375 160.203125 175.820312 160.234375 175.785156 160.269531 C 175.785156 160.273438 175.785156 160.273438 175.785156 160.273438 C 175.78125 160.28125 175.777344 160.285156 175.769531 160.289062 C 175.769531 160.289062 175.769531 160.289062 175.769531 160.292969 C 175.769531 160.296875 175.769531 160.296875 175.769531 160.296875 C 175.746094 160.324219 175.730469 160.355469 175.71875 160.386719 L 159.476562 199.78125 C 159.46875 199.800781 159.460938 199.820312 159.457031 199.839844 C 159.445312 199.882812 159.441406 199.929688 159.445312 199.976562 L 162.730469 231.472656 L 145.789062 261.195312 C 145.785156 261.195312 145.785156 261.199219 145.785156 261.199219 L 145.785156 261.203125 C 145.75 261.261719 145.734375 261.328125 145.734375 261.390625 C 145.734375 261.429688 145.738281 261.464844 145.75 261.503906 C 145.75 261.503906 145.75 261.503906 145.75 261.507812 C 145.757812 261.527344 145.761719 261.546875 145.773438 261.5625 C 145.804688 261.628906 145.855469 261.6875 145.921875 261.730469 C 145.9375 261.742188 145.949219 261.75 145.964844 261.753906 C 146.019531 261.78125 146.078125 261.796875 146.136719 261.792969 L 215.363281 261.957031 C 215.367188 261.957031 215.367188 261.957031 215.367188 261.957031 C 215.378906 261.957031 215.390625 261.953125 215.398438 261.957031 C 215.398438 261.953125 215.402344 261.953125 215.402344 261.957031 C 215.433594 261.953125 215.46875 261.945312 215.5 261.933594 C 215.503906 261.933594 215.503906 261.933594 215.503906 261.933594 C 215.550781 261.917969 215.59375 261.890625 215.632812 261.855469 L 252.082031 229.28125 C 252.097656 229.265625 252.113281 229.25 252.128906 229.230469 C 252.128906 229.230469 252.128906 229.234375 252.128906 229.230469 C 252.171875 229.175781 252.203125 229.109375 252.210938 229.035156 L 254.644531 209.652344 L 276.5 160.753906 C 276.503906 160.738281 276.511719 160.726562 276.515625 160.710938 C 276.539062 160.636719 276.539062 160.5625 276.523438 160.492188 C 276.519531 160.460938 276.507812 160.4375 276.496094 160.410156 Z M 225.4375 134.464844 L 222 180.542969 L 176.988281 160.5 Z M 194.714844 185.859375 L 177.261719 161.492188 L 221.019531 180.976562 Z M 221.78125 181.640625 L 217.535156 195.347656 L 195.9375 186.441406 Z M 194.859375 187.847656 L 210.132812 218.933594 L 192.292969 236.511719 Z M 195.363281 187.066406 L 217.296875 196.109375 L 210.53125 217.941406 Z M 218.035156 196.414062 L 244.460938 207.304688 L 211.226562 218.390625 Z M 218.273438 195.652344 L 222.527344 181.929688 L 244.152344 206.320312 Z M 176.179688 161.347656 L 193.917969 186.113281 L 160.5625 199.222656 Z M 194.109375 186.894531 L 191.496094 236.496094 L 160.503906 200.101562 Z M 160.367188 201.171875 L 190.785156 236.890625 L 163.503906 231.230469 Z M 163.339844 232.007812 L 190.667969 237.679688 L 147.152344 260.410156 Z M 147.746094 261 L 191.761719 238.007812 L 214.417969 261.15625 Z M 192.402344 237.523438 L 210.308594 219.875 L 214.84375 260.453125 Z M 215.679688 260.746094 L 211.074219 219.535156 L 250.988281 229.191406 Z M 212.054688 218.953125 L 245.328125 207.855469 L 251.246094 228.433594 Z M 251.664062 227.007812 L 246.167969 207.902344 L 253.820312 209.84375 Z M 254.035156 209.078125 L 246.230469 207.101562 L 273.730469 165.007812 Z M 245.546875 206.691406 L 223.035156 181.300781 L 275.136719 161.398438 Z M 222.796875 180.546875 L 226.242188 134.40625 L 275.183594 160.527344 Z M 222.796875 180.546875 " fill-opacity="1" fill-rule="nonzero"/></g></svg>